<svg width="202" height="35" fill="none" xmlns="http://www.w3.org/2000/svg"><path d="M62.4 27c-2.3 0-4.3-.3-6-1.1-1.7-.8-3-1.9-4-3.2a14.3 14.3 0 01-3.2-8.8v-.8c0-1.6.3-3.1.8-4.7.5-1.5 1.3-3 2.4-4.2 1-1.3 2.4-2.3 4-3C58.1.4 60 0 62.2 0c2.3 0 4.4.4 6.2 1.3a10.7 10.7 0 016.1 9h-5.8A5.5 5.5 0 0065.3 6c-1-.4-2-.6-3-.6-1.2 0-2.3.2-3.1.6-1 .4-1.7 1-2.3 1.7a8 8 0 00-1.4 2.6c-.3 1-.4 2-.4 3.3a8.2 8.2 0 001.9 5.9c.6.7 1.3 1.2 2.3 1.6.9.4 2 .6 3 .6 1.9 0 3.4-.4 4.6-1.3 1.2-.9 2-2 2.2-3.6H75a11.4 11.4 0 01-6.2 9c-1.7.8-3.9 1.3-6.3 1.3zM86 27a10 10 0 01-7.8-3 9.5 9.5 0 01-2.8-6.8v-.8a9.5 9.5 0 016.2-9.1c1.3-.5 2.8-.8 4.4-.8 1.7 0 3.2.3 4.4.8a9.6 9.6 0 016.2 9.1v.8a9.2 9.2 0 01-2.8 6.9c-.8 1-2 1.7-3.3 2.2-1.3.5-2.8.8-4.5.8zm0-4.7a5 5 0 002.8-.7c.7-.4 1.2-1 1.6-2 .4-.8.6-1.7.6-2.7 0-1.1-.2-2.1-.6-3-.4-.8-1-1.4-1.7-2-.7-.4-1.6-.7-2.7-.7a4.8 4.8 0 00-4.4 2.7c-.3.9-.5 1.9-.5 3 0 1 .2 2 .5 2.8.4.8 1 1.5 1.7 2a5 5 0 002.7.6zM98.8 26.4V7.2h4.5v8.2h-.4c0-2 .3-3.6.8-4.9a6 6 0 012.3-3c1-.6 2.3-1 3.8-1h.2c2.2 0 4 .8 5.1 2.3 1.2 1.4 1.8 3.6 1.8 6.6v11h-5.6V15.1c0-1-.3-1.9-1-2.5-.5-.7-1.3-1-2.4-1-1 0-1.9.3-2.5 1-.7.7-1 1.5-1 2.6v11.2h-5.6zM128.7 26.7c-2 0-3.5-.3-4.7-.7a5 5 0 01-2.6-2.5 11 11 0 01-.9-4.6v-17h5.3v17.2c0 1 .2 1.6.7 2.1.5.5 1.2.7 2 .7h2.9v4.8h-2.7zm-11-15.4V7.2h13.7v4h-13.8zM145 26.4v-5.7h-1v-6.2c0-1-.2-1.7-.7-2.2-.4-.5-1.2-.7-2.2-.7a76.8 76.8 0 00-7 .3V7a86.9 86.9 0 016.2-.3c2 0 3.7.3 5 .9 1.4.6 2.4 1.4 3 2.6.8 1 1.1 2.5 1.1 4.3v11.8H145zm-6.2.5c-1.3 0-2.6-.2-3.6-.7-1-.5-1.9-1.2-2.4-2.1-.6-1-1-2-1-3.4s.4-2.5 1.2-3.4c.7-1 1.7-1.6 3-2a14 14 0 014.6-.7h4v3.1h-4c-1 0-1.8.3-2.4.8-.5.4-.7 1-.7 2 0 .7.2 1.3.7 1.8.6.5 1.3.7 2.3.7.7 0 1.2-.1 1.7-.3.5-.2 1-.6 1.3-1.2.3-.5.5-1.3.5-2.2l1.4 1.4a8 8 0 01-1 3.4c-.5.9-1.3 1.6-2.2 2a7 7 0 01-3.4.8zM161 27c-1.6 0-3-.2-4.3-.7a9 9 0 01-4.8-5.4c-.4-1.2-.6-2.5-.6-3.7v-.7c0-1.3.2-2.6.6-3.7.4-1.3 1-2.3 1.9-3.3.8-1 1.8-1.7 3-2.2 1.3-.5 2.7-.8 4.3-.8 1.7 0 3.2.3 4.6 1a8 8 0 014.5 6.9h-5.5c-.1-.9-.5-1.6-1-2.2-.7-.6-1.5-.9-2.6-.9-1 0-1.8.2-2.4.7-.6.5-1 1.1-1.4 2-.3.8-.4 1.7-.4 2.9 0 1 .1 2 .4 2.8a4 4 0 001.3 1.9c.7.4 1.5.7 2.5.7.7 0 1.4-.2 1.9-.4.5-.3 1-.7 1.3-1.1.3-.5.5-1 .6-1.7h5.4a8 8 0 01-4.6 7c-1.3.7-2.9 1-4.6 1zM181 26.7c-2 0-3.6-.3-4.8-.7a5 5 0 01-2.6-2.5 11 11 0 01-.8-4.6v-17h5.2v17.2c0 1 .2 1.6.7 2.1.5.5 1.2.7 2 .7h3v4.8h-2.8zm-11.1-15.4V7.2h13.7v4H170zM192.8 27c-2.7 0-4.9-.6-6.4-1.7a5.9 5.9 0 01-2.5-4.7h5c.1.6.5 1.1 1.1 1.6a5 5 0 003 .7c.9 0 1.7-.1 2.3-.5.7-.3 1-.8 1-1.4 0-.6-.2-1-.7-1.4a6 6 0 00-2.6-.7l-1.6-.1a9 9 0 01-5.2-2 5.2 5.2 0 01-1.7-4c0-1.4.3-2.5 1-3.4.7-1 1.6-1.6 2.8-2 1.2-.6 2.6-.8 4.2-.8 2.4 0 4.4.6 6 1.7 1.5 1 2.3 2.6 2.4 4.7h-5c-.1-.7-.5-1.2-1-1.6-.6-.5-1.4-.7-2.5-.7-.9 0-1.6.2-2 .5-.6.3-.9.8-.9 1.3 0 .6.3 1 .7 1.3.5.3 1.2.4 2.2.6l1.5.1c2.4.3 4.2 1 5.5 2 1.3 1 2 2.4 2 4.2 0 1.3-.4 2.4-1 3.4-.8 1-1.8 1.7-3 2.2-1.3.5-2.9.7-4.6.7z" fill="#5061FC"/><path d="M0 26.4V.8h8l5.8 14.4h.7L20.3.8h8v25.6h-5.6V4.5l.8.1-6.8 16.6h-5.5L4.4 4.6h.9v21.8H0zM31.8 34v-4.7h4c.6 0 1.1-.1 1.6-.3a2 2 0 001-.7c.2-.4.5-.9.6-1.5l4.8-19.6H49L43.7 28a9.8 9.8 0 01-1.6 3.5c-.6 1-1.5 1.6-2.6 2-1.1.3-2.5.5-4.2.5h-3.5zm6-8v-4.4H42V26h-4zm-2.3 0L29.6 7.2h5.7L40.9 26h-5.4z" fill="#222"/></svg>